<svg id="Icon" xmlns="http://www.w3.org/2000/svg" viewBox="0 0 644.83 644.83"><defs><style>.cls-1{fill:#fff;}.cls-2{fill:#424c64;}</style></defs><circle class="cls-1" cx="322.42" cy="322.42" r="322.42"/><path class="cls-2" d="M188,373c0,161.11,146.67,262.36,269,269,8.11.44,131.19,5.15,208-87,39-46.79,63.81-115.84,50-174-3.21-13.5-9.53-38.61-32-58-7.11-6.13-26.75-21.13-55-22-10.08-.31-29.9-.92-45,12-18.1,15.49-23.11,45-13,74,2.62-4.41,13.42-21.4,34-26,5.22-1.17,17.81-4,28,3,12.32,8.45,14.85,26.93,12,39-6.4,27.13-45.59,46-77,43-51-4.93-97-69.17-85-125,10.91-50.87,65.17-72.14,75-76,72.72-28.53,140.87,18.15,147.74,23C656.43,168,559.7,103.87,457,104,318.71,104.17,188,220.89,188,373Z" transform="translate(-134.9 -52.99)"/><path class="cls-1" d="M669,234A273.57,273.57,0,0,0,511,122c2.9,4.47,6.22,9.18,10,14a194.55,194.55,0,0,0,16,18c-7.07.16-14.41.48-22,1-10.52.72-20.53,1.75-30,3,9.16,5.38,19.16,10.78,30,16q10.28,5,20,9a137.3,137.3,0,0,0-50,20,236.8,236.8,0,0,0,33,7c7.81,1.08,15.17,1.7,22,2a119.23,119.23,0,0,0-29,41,164.82,164.82,0,0,1,158-19Z" transform="translate(-134.9 -52.99)"/><path class="cls-1" d="M386,591c-25.11-20.72-51.77-44.61-79-72-27.43-27.59-51.32-54.6-72-80A276.81,276.81,0,0,0,386,591Z" transform="translate(-134.9 -52.99)"/></svg>