<svg id="Icon" xmlns="http://www.w3.org/2000/svg" viewBox="0 0 734 734"><defs><style>.cls-1{fill:#fff;}.cls-2{fill:#424c64;}</style></defs><g id="Fox_Circle" data-name="Fox Circle"><path class="cls-1" d="M779.34,238.15A367.09,367.09,0,0,1,103,523.85a367.09,367.09,0,0,1,676.32-285.7ZM688,558c37.19-51,59.18-113.53,59.18-178.5,0-166.8-135.7-302.5-302.5-302.5S141.92,213.2,142.18,380A300.12,300.12,0,0,0,200,557.35l1.63-1.16A248.83,248.83,0,0,1,157,401.61a291.64,291.64,0,0,1,9.63-61.86,287,287,0,0,1,22.21-59.63,262.88,262.88,0,0,1,66.46-83.85c8.8-7.33,25.17-21,47.83-33.09a211,211,0,0,1,82.61-24.68c3.36-.28,10.33-.86,19.87-.86a228.48,228.48,0,0,1,69.22,10.6c31.83,10.32,58.78,27.79,80.08,51.92,22.28,25.24,36.8,55.78,43.16,90.77a209.55,209.55,0,0,1,2.76,54.69c-13.21-9.78-53.72-36.13-106.43-36.13a160,160,0,0,0-30.93,3C404.09,324.23,353.94,370,335.72,429.21c-18.35,59.61-1,129.94,42.27,171,28.87,27.43,70.88,42.53,118.29,42.53,61.57,0,125.9-25.66,178.34-70.8C675.42,571.21,686.34,560.27,688,558Z" transform="translate(-74.18 -14)"/><path class="cls-2" d="M721.57,262.53A301.07,301.07,0,0,1,697.88,541.4c-2.83,4.42-18.39,23.7-23.81,28.41a299.69,299.69,0,0,1-83.5,51.75c-30.85,12.56-63.45,19.19-94.29,19.19-46.89,0-88.41-14.9-116.91-42-19.79-18.79-35-45.14-42.95-74.18a168.77,168.77,0,0,1,47.83-169.08,163,163,0,0,1,79.62-41,158.51,158.51,0,0,1,30.55-3c24.09,0,48.23,5.44,71.75,16.15a182.93,182.93,0,0,1,34.9,20.66l1.43,1.09.18-1.79c2-20.4,4.39-91.39-46.25-148.76-48.54-55-115.32-63.2-150.8-63.2-9.62,0-16.65.58-20,.86C317.17,142.16,272.93,179,254,194.73,210,231.39,180,280,164.71,339.25c-5.53,21.49-22.36,86.9,6,162.6q1.77,4.72,3.74,9.37A300.58,300.58,0,1,1,721.57,262.53Z" transform="translate(-74.18 -14)"/></g><path id="Tail_Tip" data-name="Tail Tip" class="cls-2" d="M587.5,321.5a187.36,187.36,0,0,0-49-20A189.28,189.28,0,0,0,459,299a69.13,69.13,0,0,1,45-14c-3.9-2.74-7.92-5.73-12-9a235.29,235.29,0,0,1-19.5-17.5A177.15,177.15,0,0,1,517,272a175.6,175.6,0,0,1-11.5-17.5,173.21,173.21,0,0,1-9-18A160.65,160.65,0,0,1,536,258c-4.19-7.16-8.41-15-12.5-23.5-3-6.2-5.63-12.21-8-18A205.94,205.94,0,0,1,549,241c-1.26-5.91-2.89-12.28-5-19a210.11,210.11,0,0,0-8.5-22.5,180.75,180.75,0,0,1,42,67A178.92,178.92,0,0,1,587.5,321.5Z" transform="translate(-74.18 -14)"/></svg>