<svg id="Logo" xmlns="http://www.w3.org/2000/svg" viewBox="0 0 3531.68 734"><defs><style>.cls-1{fill:#fff;}.cls-2{fill:#424c64;}.cls-3{fill:none;stroke:#000;stroke-linecap:round;stroke-linejoin:round;stroke-width:0.5px;}</style></defs><g id="Icon"><g id="Fox_Circle" data-name="Fox Circle"><path class="cls-1" d="M856.34,287.15a368.26,368.26,0,1,1-78.65-116.66A364.64,364.64,0,0,1,856.34,287.15ZM765,607c37.19-51,59.18-113.53,59.18-178.5,0-166.8-135.7-302.5-302.5-302.5S218.92,262.2,219.18,429A300.12,300.12,0,0,0,277,606.35l1.63-1.16A248.83,248.83,0,0,1,234,450.61a291.64,291.64,0,0,1,9.63-61.86,287,287,0,0,1,22.21-59.63,262.88,262.88,0,0,1,66.46-83.85c8.8-7.33,25.17-21,47.83-33.09a211,211,0,0,1,82.61-24.68c3.36-.28,10.33-.86,19.87-.86a228.48,228.48,0,0,1,69.22,10.6c31.83,10.32,58.78,27.79,80.08,51.92,22.28,25.24,36.8,55.78,43.16,90.77a209.55,209.55,0,0,1,2.76,54.69c-13.21-9.78-53.72-36.13-106.43-36.13a160,160,0,0,0-30.93,3C481.09,373.23,430.94,419,412.72,478.21c-18.35,59.61-1,129.94,42.27,171,28.87,27.43,70.88,42.53,118.29,42.53,61.57,0,125.9-25.66,178.34-70.8C752.42,620.21,763.34,609.27,765,607Z" transform="translate(-151.18 -63)"/><path class="cls-2" d="M798.57,311.53A301.07,301.07,0,0,1,774.88,590.4c-2.83,4.42-18.39,23.7-23.81,28.41a299.69,299.69,0,0,1-83.5,51.75c-30.85,12.56-63.45,19.19-94.29,19.19-46.89,0-88.41-14.9-116.91-42-19.79-18.79-35-45.14-42.95-74.18a168.77,168.77,0,0,1,47.83-169.08,163,163,0,0,1,79.62-41,158.51,158.51,0,0,1,30.55-3c24.09,0,48.23,5.44,71.75,16.15a182.93,182.93,0,0,1,34.9,20.66l1.43,1.09.18-1.79c2-20.4,4.39-91.39-46.25-148.76-48.54-55-115.32-63.2-150.8-63.2-9.62,0-16.65.58-20,.86C394.17,191.16,349.93,228,331,243.73,287,280.39,257,329,241.71,388.25c-5.53,21.49-22.36,86.9,6,162.6q1.77,4.73,3.74,9.37A300.58,300.58,0,1,1,798.57,311.53Z" transform="translate(-151.18 -63)"/><path class="cls-3" d="M751.07,618.81a299.69,299.69,0,0,1-83.5,51.75c-30.85,12.56-63.45,19.19-94.29,19.19-46.89,0-88.41-14.9-116.91-42-19.79-18.79-35-45.14-42.95-74.18a168.77,168.77,0,0,1,47.83-169.08,163,163,0,0,1,79.62-41,158.51,158.51,0,0,1,30.55-3c24.09,0,48.23,5.44,71.75,16.15a182.93,182.93,0,0,1,34.9,20.66l1.43,1.09.18-1.79c2-20.4,4.39-91.39-46.25-148.76-48.54-55-115.32-63.2-150.8-63.2-9.62,0-16.65.58-20,.86C394.17,191.16,349.93,228,331,243.73,287,280.39,257,329,241.71,388.25c-5.53,21.49-22.36,86.9,6,162.6q1.77,4.73,3.74,9.37a300.54,300.54,0,1,1,523.4,30.18C772.05,594.82,756.49,614.1,751.07,618.81Z" transform="translate(-151.18 -63)"/></g><path id="Tail_Tip" data-name="Tail Tip" class="cls-2" d="M664.5,370.5a187.36,187.36,0,0,0-49-20A189.28,189.28,0,0,0,536,348a69.13,69.13,0,0,1,45-14c-3.9-2.74-7.92-5.73-12-9a235.29,235.29,0,0,1-19.5-17.5A177.15,177.15,0,0,1,594,321a175.6,175.6,0,0,1-11.5-17.5,173.21,173.21,0,0,1-9-18A160.65,160.65,0,0,1,613,307c-4.19-7.16-8.41-15-12.5-23.5-3-6.2-5.63-12.21-8-18A205.94,205.94,0,0,1,626,290c-1.26-5.91-2.89-12.28-5-19a210.11,210.11,0,0,0-8.5-22.5,180.75,180.75,0,0,1,42,67A178.92,178.92,0,0,1,664.5,370.5Z" transform="translate(-151.18 -63)"/></g><g id="Awkwa_Fox" data-name="Awkwa Fox"><path class="cls-2" d="M1210.49,646.23h-21l-18.2-44.8a115.84,115.84,0,0,1-38.5,40.25,96.31,96.31,0,0,1-52.5,15.05q-100.8,0-100.8-98v-70q0-98,100.8-98h81.2V275.93q0-25.2-16.1-39.2t-47.6-14q-62.31,0-62.3,53.2v41.3h-49v-38.5q0-46.89,27.65-72.45t83.65-25.55q56,0,84.35,25.55t28.35,72.45Zm-49-213.5h-81.2q-29.4,0-40.6,14.7t-11.2,41.3v70q0,26.61,11.2,41.3t40.6,14.7q29.4,0,54.6-22.75t26.6-45.15Z" transform="translate(-151.18 -63)"/><path class="cls-2" d="M1462.49,558.73V191.23h49v367.5q0,56,64.75,56t64.75-56V191.23h49v367.5q0,46.2-29.4,72.1t-87.15,25.9q-57.75,0-86.45-40.6-27.3,40.61-85.75,40.6t-87.85-25.9q-29.4-25.89-29.4-72.1V191.23h49v367.5q0,56,64.75,56T1462.49,558.73Z" transform="translate(-151.18 -63)"/><path class="cls-2" d="M1820.19,646.23h-49v-455h49v193.2L1942,191.23h54.59l-123.89,196,132.3,259h-53.91l-107.79-212.1-23.1,37.1Z" transform="translate(-151.18 -63)"/><path class="cls-2" d="M2208,558.73V191.23h49v367.5q0,56,64.75,56t64.75-56V191.23h49v367.5q0,46.2-29.4,72.1t-87.15,25.9q-57.75,0-86.45-40.6-27.3,40.61-85.75,40.6t-87.85-25.9q-29.4-25.89-29.4-72.1V191.23h49v367.5q0,56,64.75,56T2208,558.73Z" transform="translate(-151.18 -63)"/><path class="cls-2" d="M2733,646.23h-21l-18.2-44.8a115.84,115.84,0,0,1-38.5,40.25,96.31,96.31,0,0,1-52.5,15.05q-100.8,0-100.8-98v-70q0-98,100.8-98H2684V275.93q0-25.2-16.1-39.2t-47.6-14q-62.31,0-62.3,53.2v41.3h-49v-38.5q0-46.89,27.65-72.45t83.65-25.55q56,0,84.35,25.55T2733,278.73Zm-49-213.5h-81.2q-29.4,0-40.6,14.7t-11.2,41.3v70q0,26.61,11.2,41.3t40.6,14.7q29.4,0,54.6-22.75t26.6-45.15Z" transform="translate(-151.18 -63)"/><path class="cls-2" d="M2971,646.23h-49v-455h192.5v42H2971v161h115.5v42H2971Z" transform="translate(-151.18 -63)"/><path class="cls-2" d="M3387.46,278.73v280q0,46.9-29.75,72.45t-88.9,25.55q-59.16,0-89.25-25.55t-30.1-72.45v-280q0-46.89,29.75-72.45t88.9-25.55q59.14,0,89.25,25.55T3387.46,278.73Zm-49,280v-280q0-56-70-56t-70,56v280q0,56,70,56T3338.46,558.73Z" transform="translate(-151.18 -63)"/><path class="cls-2" d="M3682.86,646.23h-51.1l-79.1-177.1-79.1,177.1h-51.1l105-234.5-98-220.5h51.1l74.9,169.4,76.3-169.4h51.1L3581.36,418Z" transform="translate(-151.18 -63)"/></g></svg>