<svg id="Icon" xmlns="http://www.w3.org/2000/svg" viewBox="0 0 3380.69 644.83"><defs><style>.cls-1{fill:#fff;}.cls-2{fill:#424c64;}</style></defs><g id="Icon-2" data-name="Icon"><circle class="cls-1" cx="322.42" cy="322.42" r="322.42"/><path class="cls-2" d="M188,373c0,161.11,146.67,262.36,269,269,8.11.44,131.19,5.15,208-87,39-46.79,63.81-115.84,50-174-3.21-13.5-9.53-38.61-32-58-7.11-6.13-26.75-21.13-55-22-10.08-.31-29.9-.92-45,12-18.1,15.49-23.11,45-13,74,2.62-4.41,13.42-21.4,34-26,5.22-1.17,17.81-4,28,3,12.32,8.45,14.85,26.93,12,39-6.4,27.13-45.59,46-77,43-51-4.93-97-69.17-85-125,10.91-50.87,65.17-72.14,75-76,72.72-28.53,140.87,18.15,147.74,23C656.43,168,559.7,103.87,457,104,318.71,104.17,188,220.89,188,373Z" transform="translate(-134.9 -52.99)"/><path class="cls-1" d="M669,234A273.57,273.57,0,0,0,511,122c2.9,4.47,6.22,9.18,10,14a194.55,194.55,0,0,0,16,18c-7.07.16-14.41.48-22,1-10.52.72-20.53,1.75-30,3,9.16,5.38,19.16,10.78,30,16q10.28,5,20,9a137.3,137.3,0,0,0-50,20,236.8,236.8,0,0,0,33,7c7.81,1.08,15.17,1.7,22,2a119.23,119.23,0,0,0-29,41,164.82,164.82,0,0,1,158-19Z" transform="translate(-134.9 -52.99)"/><path class="cls-1" d="M386,591c-25.11-20.72-51.77-44.61-79-72-27.43-27.59-51.32-54.6-72-80A276.81,276.81,0,0,0,386,591Z" transform="translate(-134.9 -52.99)"/></g><path class="cls-2" d="M1089.82,590.64h-19.5l-16.9-41.6a107.53,107.53,0,0,1-35.75,37.38,89.47,89.47,0,0,1-48.75,14q-93.6,0-93.6-91v-65q0-91,93.6-91h75.4V246.79q0-23.4-15-36.4t-44.2-13q-57.85,0-57.85,49.4v38.35h-45.5V249.39q0-43.53,25.67-67.27t77.68-23.73q52,0,78.32,23.73t26.33,67.27Zm-45.5-198.25h-75.4q-27.3,0-37.7,13.65t-10.4,38.35v65q0,24.72,10.4,38.35t37.7,13.65q27.3,0,50.7-21.12t24.7-41.93Z" transform="translate(-134.9 -52.99)"/><path class="cls-2" d="M1340.07,509.39V168.14h45.5V509.39q0,52,60.12,52t60.13-52V168.14h45.5V509.39q0,42.9-27.3,67t-80.93,24q-53.62,0-80.27-37.7-25.35,37.71-79.63,37.7t-81.57-24q-27.3-24-27.3-67V168.14h45.5V509.39q0,52,60.12,52T1340.07,509.39Z" transform="translate(-134.9 -52.99)"/><path class="cls-2" d="M1688.47,590.64H1643V168.14h45.5v179.4l113.1-179.4h50.7l-115,182,122.85,240.5h-50l-100.1-196.95-21.45,34.45Z" transform="translate(-134.9 -52.99)"/><path class="cls-2" d="M2064.81,509.39V168.14h45.5V509.39q0,52,60.12,52t60.13-52V168.14h45.5V509.39q0,42.9-27.3,67t-80.93,24q-53.62,0-80.27-37.7-25.35,37.71-79.63,37.7t-81.57-24q-27.3-24-27.3-67V168.14h45.5V509.39q0,52,60.12,52T2064.81,509.39Z" transform="translate(-134.9 -52.99)"/><path class="cls-2" d="M2568.55,590.64h-19.5l-16.9-41.6a107.53,107.53,0,0,1-35.75,37.38,89.42,89.42,0,0,1-48.75,14q-93.6,0-93.6-91v-65q0-91,93.6-91h75.4V246.79q0-23.4-15-36.4t-44.2-13q-57.86,0-57.85,49.4v38.35h-45.5V249.39q0-43.53,25.68-67.27t77.67-23.73q52,0,78.33,23.73t26.32,67.27Zm-45.5-198.25h-75.4q-27.3,0-37.7,13.65t-10.4,38.35v65q0,24.72,10.4,38.35t37.7,13.65q27.3,0,50.7-21.12t24.7-41.93Z" transform="translate(-134.9 -52.99)"/><path class="cls-2" d="M2822.05,590.64h-45.5V168.14H2955.3v39H2822.05v149.5H2929.3v39H2822.05Z" transform="translate(-134.9 -52.99)"/><path class="cls-2" d="M3225.05,249.39v260q0,43.56-27.63,67.28t-82.55,23.72q-54.93,0-82.87-23.72t-27.95-67.28v-260q0-43.53,27.62-67.27t82.55-23.73q54.92,0,82.88,23.73T3225.05,249.39Zm-45.5,260v-260q0-52-65-52t-65,52v260q0,52,65,52T3179.55,509.39Z" transform="translate(-134.9 -52.99)"/><path class="cls-2" d="M3515.59,590.64h-47.45l-73.45-164.45-73.45,164.45h-47.45l97.5-217.75-91-204.75h47.45l69.55,157.3,70.85-157.3h47.45l-94.25,210.6Z" transform="translate(-134.9 -52.99)"/></svg>