<svg id="Logo" xmlns="http://www.w3.org/2000/svg" viewBox="0 0 3272.72 644.83"><defs><style>.cls-1{fill:#fff;}.cls-2{fill:#424c64;}</style></defs><g id="Icon"><circle class="cls-1" cx="322.42" cy="322.42" r="322.42"/><path class="cls-2" d="M53.1,320c0,161.12,146.66,262.37,269,269,8.11.44,131.19,5.15,208-87,39-46.78,63.81-115.84,50-174-3.21-13.49-9.53-38.6-32-58-7.11-6.13-26.75-21.13-55-22-10.08-.31-29.9-.92-45,12-18.1,15.5-23.11,45-13,74,2.62-4.41,13.42-21.39,34-26,5.22-1.17,17.81-4,28,3,12.32,8.45,14.85,26.93,12,39-6.4,27.14-45.59,46-77,43-51-4.93-97-69.16-85-125,10.91-50.86,65.17-72.14,75-76,72.72-28.53,140.87,18.15,147.74,23-48.31-100-145-164.15-247.74-164C183.81,51.19,53.1,167.91,53.1,320Z"/><path class="cls-1" d="M534.1,181a273.57,273.57,0,0,0-158-112c2.9,4.48,6.22,9.18,10,14a193.25,193.25,0,0,0,16,18c-7.07.16-14.41.48-22,1-10.52.72-20.53,1.76-30,3,9.16,5.38,19.16,10.78,30,16q10.27,5,20,9a137.3,137.3,0,0,0-50,20,235.37,235.37,0,0,0,33,7c7.81,1.08,15.17,1.7,22,2a119.23,119.23,0,0,0-29,41,164.82,164.82,0,0,1,158-19Z"/><path class="cls-1" d="M251.1,538c-25.11-20.71-51.77-44.61-79-72-27.43-27.59-51.32-54.59-72-80a276.81,276.81,0,0,0,151,152Z"/></g><g id="Awkwa_Fox" data-name="Awkwa Fox"><path class="cls-2" d="M955,537.82h-19.5l-16.91-41.6A107.5,107.5,0,0,1,882.8,533.6a89.39,89.39,0,0,1-48.75,14q-93.6,0-93.61-91v-65q0-91,93.58-91h75.41l0-106.6q0-23.4-15-36.4t-44.2-13q-57.86,0-57.84,49.41v38.35h-45.5V196.59q0-43.53,25.67-67.27t77.67-23.74q52,0,78.33,23.71t26.33,67.28ZM909.42,339.57H834q-27.3,0-37.7,13.66t-10.39,38.35v65q0,24.71,10.4,38.35T834,508.58q27.3,0,50.7-21.13t24.7-41.93Z"/><path class="cls-2" d="M1205.19,456.53l0-341.25h45.5l0,341.25q0,52,60.13,52t60.12-52l0-341.25h45.5l0,341.25q0,42.9-27.29,67t-80.92,24.06q-53.62,0-80.28-37.68-25.35,37.71-79.62,37.71t-81.58-24q-27.32-24-27.31-66.95l0-341.25h45.5l0,341.25q0,52,60.13,52T1205.19,456.53Z"/><path class="cls-2" d="M1553.6,537.73h-45.5l-.06-422.5h45.5l0,179.4,113.07-179.42h50.71l-115,182L1725.2,537.71h-50L1575,340.78l-21.45,34.45Z"/><path class="cls-2" d="M1929.92,456.43l0-341.25h45.5l0,341.25q0,52,60.14,52t60.11-52l0-341.25h45.5l0,341.25q0,42.9-27.29,67T2033,547.41q-53.62,0-80.28-37.69-25.34,37.71-79.62,37.71t-81.58-24q-27.3-24-27.31-66.95l0-341.25h45.5l0,341.25q0,52,60.14,52T1929.92,456.43Z"/><path class="cls-2" d="M2433.68,537.6h-19.5l-16.9-41.6a107.61,107.61,0,0,1-35.75,37.38,89.43,89.43,0,0,1-48.75,14q-93.6,0-93.61-91v-65q0-91,93.59-91h75.4l0-106.6q0-23.4-15-36.4t-44.2-13q-57.87,0-57.85,49.41v38.35h-45.5V196.38q0-43.53,25.67-67.27T2329,105.37q52,0,78.33,23.71t26.33,67.27Zm-45.53-198.24h-75.4q-27.3,0-37.69,13.66t-10.4,38.35v65q0,24.71,10.41,38.35t37.7,13.64q27.3,0,50.7-21.13t24.69-41.93Z"/><path class="cls-2" d="M2579.18,537.57h-45.5l-.06-422.5,178.75,0v39l-133.25,0,0,149.5,107.25,0v39l-107.25,0Z"/><path class="cls-2" d="M2982.13,196.26l0,260q0,43.56-27.61,67.28T2872,547.28q-54.93,0-82.88-23.72t-28-67.27l0-260q0-43.53,27.61-67.28t82.55-23.73q54.91,0,82.88,23.71T2982.13,196.26Zm-45.47,260,0-260q0-52-65-52t-65,52l0,260q0,52,65,52T2936.66,456.27Z"/><path class="cls-2" d="M3272.72,537.47h-47.45L3151.8,373,3078.37,537.5h-47.45l97.47-217.76-91-204.74h47.45l69.57,157.29L3225.21,115h47.45l-94.22,210.61Z"/></g></svg>