<svg id="Logo" xmlns="http://www.w3.org/2000/svg" viewBox="0 0 3270.69 644.83"><defs><style>.cls-1{fill:#fff;}.cls-2{fill:#424c64;}.cls-3{fill:#eee;}</style></defs><g id="Icon"><circle class="cls-1" cx="322.42" cy="322.42" r="322.42"/><path class="cls-2" d="M53.1,320c0,161.12,146.66,262.37,269,269,8.11.44,131.19,5.15,208-87,39-46.78,63.81-115.84,50-174-3.21-13.49-9.53-38.6-32-58-7.11-6.13-26.75-21.13-55-22-10.08-.31-29.9-.92-45,12-18.1,15.5-23.11,45-13,74,2.62-4.41,13.42-21.39,34-26,5.22-1.17,17.81-4,28,3,12.32,8.45,14.85,26.93,12,39-6.4,27.14-45.59,46-77,43-51-4.93-97-69.16-85-125,10.91-50.86,65.17-72.14,75-76,72.72-28.53,140.87,18.15,147.74,23-48.31-100-145-164.15-247.74-164C183.81,51.19,53.1,167.91,53.1,320Z"/><path class="cls-1" d="M534.1,181a273.57,273.57,0,0,0-158-112c2.9,4.48,6.22,9.18,10,14a193.25,193.25,0,0,0,16,18c-7.07.16-14.41.48-22,1-10.52.72-20.53,1.76-30,3,9.16,5.38,19.16,10.78,30,16q10.27,5,20,9a137.3,137.3,0,0,0-50,20,235.37,235.37,0,0,0,33,7c7.81,1.08,15.17,1.7,22,2a119.23,119.23,0,0,0-29,41,164.82,164.82,0,0,1,158-19Z"/><path class="cls-1" d="M251.1,538c-25.11-20.71-51.77-44.61-79-72-27.43-27.59-51.32-54.59-72-80a276.81,276.81,0,0,0,151,152Z"/></g><g id="Awkwa_Fox" data-name="Awkwa Fox"><path class="cls-3" d="M954.92,537.66h-19.5l-16.9-41.6a107.5,107.5,0,0,1-35.75,37.37,89.39,89.39,0,0,1-48.75,14q-93.6,0-93.6-91v-65q0-91,93.6-91h75.4V193.81q0-23.4-14.95-36.4t-44.2-13q-57.85,0-57.85,49.4v38.35h-45.5V196.41q0-43.54,25.67-67.28t77.68-23.72q52,0,78.32,23.72t26.33,67.28Zm-45.5-198.25H834q-27.3,0-37.7,13.65t-10.4,38.35v65q0,24.7,10.4,38.35T834,508.41q27.3,0,50.7-21.13t24.7-41.92Z"/><path class="cls-3" d="M1205.17,456.41V115.16h45.5V456.41q0,52,60.12,52t60.13-52V115.16h45.5V456.41q0,42.9-27.3,66.95t-80.93,24q-53.62,0-80.27-37.7-25.35,37.7-79.63,37.7t-81.57-24q-27.3-24-27.3-66.95V115.16h45.5V456.41q0,52,60.12,52T1205.17,456.41Z"/><path class="cls-3" d="M1553.57,537.66h-45.5V115.16h45.5v179.4l113.1-179.4h50.7l-115,182,122.85,240.5h-50.05L1575,340.71l-21.44,34.45Z"/><path class="cls-3" d="M1929.91,456.41V115.16h45.5V456.41q0,52,60.12,52t60.13-52V115.16h45.5V456.41q0,42.9-27.3,66.95t-80.93,24q-53.62,0-80.27-37.7-25.35,37.7-79.63,37.7t-81.57-24q-27.3-24-27.3-66.95V115.16h45.5V456.41q0,52,60.12,52T1929.91,456.41Z"/><path class="cls-3" d="M2433.65,537.66h-19.5l-16.9-41.6a107.5,107.5,0,0,1-35.75,37.37,89.35,89.35,0,0,1-48.75,14q-93.6,0-93.6-91v-65q0-91,93.6-91h75.4V193.81q0-23.4-15-36.4t-44.2-13q-57.86,0-57.85,49.4v38.35h-45.5V196.41q0-43.54,25.68-67.28T2329,105.41q52,0,78.33,23.72t26.32,67.28Zm-45.5-198.25h-75.4q-27.3,0-37.7,13.65t-10.4,38.35v65q0,24.7,10.4,38.35t37.7,13.65q27.3,0,50.7-21.13t24.7-41.92Z"/><path class="cls-3" d="M2577.15,537.66h-45.5V115.16H2710.4v39H2577.15v149.5H2684.4v39H2577.15Z"/><path class="cls-3" d="M2980.15,196.41v260q0,43.54-27.63,67.27T2870,547.41q-54.93,0-82.87-23.73t-27.95-67.27v-260q0-43.54,27.62-67.28t82.55-23.72q54.91,0,82.88,23.72T2980.15,196.41Zm-45.5,260v-260q0-52-65-52t-65,52v260q0,52,65,52T2934.65,456.41Z"/><path class="cls-3" d="M3270.69,537.66h-47.45l-73.45-164.45-73.45,164.45h-47.45l97.5-217.75-91-204.75h47.45l69.55,157.3,70.85-157.3h47.45l-94.25,210.6Z"/></g></svg>